<svg width="198" height="120" viewBox="0 0 198 120" fill="none" xmlns="http://www.w3.org/2000/svg">
<path d="M100.037 97.6043C91.2017 106.795 89.864 93.3282 80.7065 84.525C71.5491 75.7218 58.0397 74.9161 66.8752 65.7251C75.7107 56.5341 90.2968 56.2197 99.4543 65.0229C108.612 73.8261 108.873 88.4133 100.037 97.6043Z" fill="#707070" fill-opacity="0.2"/>
<path d="M85.2389 48.1209C81.2183 54.3948 74.6128 57.3365 70.4853 54.6913C66.3577 52.0461 66.2711 44.8158 70.2918 38.5419C74.3124 32.2681 80.9178 29.3264 85.0454 31.9716C89.1729 34.6168 89.2596 41.8471 85.2389 48.1209Z" fill="#707070" fill-opacity="0.2"/>
<path d="M116.378 77.8616C110.005 82.3102 107.21 89.3158 110.137 93.509C113.064 97.7022 120.603 97.4952 126.977 93.0465C133.351 88.5979 136.145 81.5923 133.218 77.3991C130.291 73.2059 122.752 73.4129 116.378 77.8616Z" fill="#707070" fill-opacity="0.2"/>
<path d="M109.197 50.8234C104.084 56.2438 97.048 57.9108 93.4819 54.5468C89.9159 51.1828 91.1702 44.0615 96.2835 38.6411C101.397 33.2207 108.433 31.5537 111.999 34.9178C115.565 38.2818 114.311 45.403 109.197 50.8234Z" fill="#707070" fill-opacity="0.2"/>
<path d="M112.363 53.6877C106.924 59.2401 105.476 66.6421 109.128 70.2205C112.781 73.7989 120.152 72.1987 125.591 66.6463C131.03 61.0939 132.478 53.6919 128.826 50.1134C125.173 46.535 117.802 48.1352 112.363 53.6877Z" fill="#707070" fill-opacity="0.2"/>
</svg>
